<svg width="96" height="40" viewBox="0 0 96 40" fill="none" xmlns="http://www.w3.org/2000/svg">
<path d="M89.255 24.3639C86.6684 22.7278 84.5569 21.5415 82.5493 20.2197C81.3928 19.4203 80.1003 18.5168 81.4217 16.344C85.7839 18.4789 90.1845 20.1698 94.0956 22.949C95.7624 24.0961 95.8536 25.3278 94.8777 27.1626C94.529 27.8424 94.0443 28.418 93.6283 28.9602C91.2384 31.9071 88.8484 34.854 86.356 37.7655C85.5594 38.7478 84.5915 39.7281 83.2654 38.7559C82.0753 37.8877 82.1905 36.5558 82.8176 35.4007C83.5487 34.11 84.4494 32.9921 85.3164 31.8055C85.9403 30.9922 86.633 30.1455 86.9178 28.9864C86.505 29.1868 86.0923 29.3873 85.6796 29.5877C81.0709 31.8256 78.8826 31.5273 75.0115 28.1331C71.9562 25.3636 69.5552 22.1913 68.0852 18.3118C67.7173 17.3846 67.3494 16.4574 67.0151 15.599C65.3724 11.8884 63.3232 11.3523 60.2854 14.0183C58.7321 15.3681 57.4491 17.0969 56.0653 18.6194C51.9812 23.3246 48.382 23.7965 43.212 20.1825C39.3345 17.472 36.148 14.0856 33.7903 9.95668C33.0832 8.68381 32.3426 7.34219 31.4628 6.23828C29.9736 4.40956 28.6731 4.36058 27.2861 6.22495C25.7616 8.15613 24.6114 10.3309 23.3588 12.4702C22.4549 13.9299 21.7894 15.529 20.7832 16.9533C18.7019 19.8353 15.8449 21.4779 12.1881 20.7868C9.45426 20.2429 6.68845 19.4594 4.02664 18.5403C2.28622 17.9394 0.894571 16.6587 0.885048 14.0264C1.77285 14.2758 2.48949 14.5232 3.27492 14.7373C6.07431 15.5896 8.8737 16.4418 11.7435 17.0898C14.5109 17.7024 16.5089 16.3919 17.8319 14.0482C18.9469 11.9757 19.8572 9.8324 21.0058 7.82857C22.084 6.02905 23.1287 4.16078 24.546 2.70697C27.5551 -0.540526 31.6278 -0.391651 34.4367 3.09294C35.7228 4.68006 36.8009 6.53829 37.7767 8.36117C39.7969 11.9735 42.6458 14.8432 45.9795 17.1373C48.7692 19.015 50.1066 18.791 52.3206 16.3549C54.1538 14.3588 55.8176 12.1899 57.8876 10.5042C59.1993 9.35688 61.055 8.62594 62.8386 8.2702C65.926 7.62162 68.3782 8.98271 69.8242 11.7681C70.5632 13.2806 71.267 14.8953 71.7309 16.5414C72.8937 20.315 75.4003 23.1808 78.1837 25.7421C79.5418 26.954 80.975 27.4489 82.8323 26.5471C84.6895 25.6452 86.6795 25.1892 89.255 24.3639Z" fill="#8B109B"/>
</svg>
